<?xml version="1.0" standalone="no"?>
<!DOCTYPE svg PUBLIC "-//W3C//DTD SVG 20010904//EN"
 "http://www.w3.org/TR/2001/REC-SVG-20010904/DTD/svg10.dtd">
<svg version="1.0" xmlns="http://www.w3.org/2000/svg"
 width="1670.000000pt" height="1670.000000pt" viewBox="0 0 1670.000000 1670.000000"
 preserveAspectRatio="xMidYMid meet">
<metadata>
Created by potrace 1.11, written by Peter Selinger 2001-2013
</metadata>
<g transform="translate(0.000000,1670.000000) scale(0.100000,-0.100000)"
fill="#000000" stroke="none">
<path d="M429 12801 c0 -9 -2 -23 -4 -31 -2 -8 -16 -76 -30 -150 -14 -74 -27
-144 -29 -155 -3 -11 -23 -114 -45 -230 -23 -115 -43 -218 -45 -227 -4 -17
201 -18 4199 -18 l4203 0 41 213 c48 248 48 246 61 317 6 30 12 66 15 80 27
130 41 211 36 214 -3 3 -1895 4 -4204 4 -3888 0 -4197 -1 -4198 -17z"/>
<path d="M9826 12677 c-15 -78 -30 -153 -32 -167 -2 -14 -7 -36 -10 -50 -3
-14 -8 -38 -10 -55 -3 -16 -22 -115 -42 -220 l-38 -190 3415 -3 c2529 -1 3417
1 3422 9 4 6 10 32 14 58 7 50 7 51 24 132 6 30 14 69 16 85 3 16 10 49 15 74
5 25 14 70 19 100 6 30 13 66 16 80 3 14 8 39 10 55 3 17 14 73 24 125 11 52
18 98 15 101 -2 4 -1540 7 -3417 7 l-3413 0 -28 -141z"/>
<path d="M172 11473 c-23 -120 -45 -229 -47 -243 -3 -14 -7 -36 -10 -50 -7
-33 -8 -40 -40 -205 -14 -77 -33 -174 -42 -215 -8 -41 -17 -86 -19 -100 -3
-14 -7 -31 -9 -37 -5 -15 -127 -14 1638 -13 l1178 0 -6 -48 c-3 -26 -10 -63
-15 -82 -8 -30 -39 -186 -54 -275 -3 -16 -14 -72 -24 -122 l-18 -93 1383 0
1383 0 5 23 c7 34 66 339 70 367 3 14 7 36 10 50 6 27 35 173 35 177 0 1 633
2 1406 2 773 0 1408 2 1410 4 3 2 7 15 9 28 3 13 9 47 15 74 16 78 18 90 50
260 17 88 48 250 70 360 39 196 45 227 55 283 3 15 7 37 10 50 l5 22 -4203 0
-4203 0 -42 -217z"/>
<path d="M9635 11678 c-6 -19 -33 -148 -40 -188 -3 -19 -12 -66 -20 -105 -24
-121 -54 -279 -60 -315 -3 -19 -8 -42 -10 -50 -2 -8 -7 -29 -10 -47 -3 -17
-21 -112 -40 -210 -20 -98 -37 -187 -39 -198 -18 -95 -39 -204 -42 -225 -3
-14 -7 -32 -9 -40 -3 -8 -7 -32 -11 -54 -3 -21 -8 -48 -10 -60 -16 -76 -34
-173 -34 -183 0 -10 284 -13 1388 -13 1104 0 1389 3 1389 13 0 6 6 39 12 72
17 84 20 102 25 128 2 13 13 71 25 128 11 57 22 115 25 129 2 14 11 59 20 100
8 41 24 127 36 190 12 63 23 122 26 130 3 13 238 15 2034 15 1346 0 2030 3
2031 10 0 6 2 17 4 25 1 8 12 65 24 125 11 61 23 121 26 135 3 14 16 86 30
160 14 74 33 169 41 210 9 41 18 87 21 103 l4 27 -3416 0 c-2724 0 -3416 -3
-3420 -12z"/>
<path d="M2639 9673 c0 -10 -2 -25 -4 -33 -1 -8 -8 -44 -14 -80 -6 -36 -16
-85 -21 -110 -5 -25 -12 -56 -14 -70 -2 -14 -7 -36 -10 -50 -3 -14 -8 -36 -10
-50 -10 -59 -133 -688 -143 -727 l-5 -23 1386 0 c1313 0 1386 1 1387 18 0 9 2
24 4 32 7 27 28 135 30 150 1 8 7 40 13 70 6 30 14 66 16 80 9 50 57 296 66
340 6 25 17 83 25 130 9 47 27 140 40 208 14 68 25 126 25 128 0 2 -623 4
-1385 4 -1312 0 -1385 -1 -1386 -17z"/>
<path d="M9246 9678 c-4 -12 -31 -149 -42 -208 -3 -14 -16 -81 -29 -150 -13
-69 -27 -137 -29 -152 -3 -15 -12 -63 -20 -105 -19 -89 -23 -114 -32 -163 -4
-19 -8 -42 -10 -50 -45 -233 -56 -288 -60 -302 -5 -17 148 -18 3120 -18 2970
0 3126 1 3127 18 0 9 2 24 4 32 4 19 53 266 59 300 2 14 23 118 46 233 22 114
39 211 36 215 -2 4 -781 7 -1731 6 l-1727 0 5 35 c3 20 8 47 11 61 9 39 15 72
21 105 3 17 7 41 11 55 3 14 8 42 11 63 l6 37 -1387 0 c-1101 0 -1387 -3
-1390 -12z"/>
<path d="M2359 8218 c-1 -7 -1 -16 -1 -19 1 -4 -3 -22 -8 -40 -6 -19 -13 -54
-16 -79 -3 -25 -8 -48 -10 -51 -2 -3 -6 -21 -9 -40 -5 -29 -130 -674 -140
-720 -2 -9 -6 -32 -9 -50 -3 -19 -13 -70 -21 -114 -9 -44 -19 -91 -21 -105 -3
-14 -14 -69 -24 -124 -11 -54 -20 -104 -20 -112 0 -12 208 -14 1380 -14 l1380
0 5 23 c3 12 7 33 9 47 2 14 27 140 54 280 28 140 54 270 57 288 3 18 12 64
20 102 8 38 17 84 20 102 3 18 19 103 35 188 33 170 31 158 61 315 11 61 22
116 24 123 4 9 -277 12 -1380 12 -1101 0 -1385 -3 -1386 -12z"/>
<path d="M8960 8215 c0 -8 0 -17 -1 -20 -1 -2 -5 -24 -11 -47 -5 -24 -12 -54
-14 -68 -3 -14 -11 -60 -20 -103 -8 -42 -18 -90 -20 -105 -3 -15 -19 -97 -36
-182 -17 -85 -32 -164 -33 -175 -2 -11 -18 -92 -35 -180 -18 -88 -34 -169 -36
-180 -2 -11 -6 -31 -9 -45 -2 -14 -7 -38 -10 -55 -2 -16 -16 -86 -30 -155 -13
-69 -25 -131 -25 -137 0 -19 2776 -19 2777 0 0 6 15 84 33 172 18 88 34 171
36 185 3 14 18 93 34 175 16 83 32 166 35 185 3 19 8 37 11 40 3 3 778 6 1722
6 945 1 1724 2 1732 3 9 0 16 10 17 22 1 11 7 44 13 72 5 29 12 63 15 77 3 14
9 48 15 75 6 28 12 61 15 75 12 64 66 347 69 363 4 16 -150 17 -3120 17 -2770
0 -3124 -2 -3124 -15z"/>
<path d="M2017 6443 c-3 -5 -8 -24 -11 -43 -9 -56 -16 -92 -27 -146 -5 -28
-12 -61 -14 -75 -3 -13 -7 -35 -10 -49 -40 -201 -156 -799 -161 -830 -4 -21
-15 -81 -39 -200 -3 -14 -8 -38 -10 -55 -3 -16 -8 -38 -11 -47 -5 -17 65 -18
1380 -18 762 0 1386 2 1386 5 0 7 53 287 81 425 12 58 23 116 25 130 5 29 47
244 75 380 10 52 21 113 25 135 3 22 7 42 9 45 2 3 6 24 9 46 4 22 9 51 12 64
3 14 8 39 10 55 3 17 12 61 20 98 8 38 14 73 14 78 0 11 -2757 13 -2763 2z"/>
<path d="M8611 6413 c-7 -30 -76 -383 -97 -503 -3 -14 -13 -68 -24 -120 -10
-52 -26 -131 -34 -175 -8 -44 -36 -186 -61 -315 -25 -129 -50 -254 -54 -277
l-8 -43 1387 0 c1230 0 1389 2 1394 15 3 8 8 37 12 63 3 26 8 50 10 53 2 4 6
26 9 49 3 24 8 46 10 50 2 4 7 22 10 41 3 19 10 57 15 84 5 28 12 64 15 80 2
17 14 75 25 130 11 55 23 112 25 126 3 14 12 61 20 105 9 43 24 124 35 179 10
55 21 111 25 125 5 24 11 54 20 110 3 14 14 71 25 125 11 55 20 108 20 118 0
16 -73 17 -1385 17 l-1384 0 -10 -37z"/>
<path d="M1669 4668 c-2 -22 -7 -52 -13 -78 -3 -14 -17 -83 -30 -155 -14 -71
-29 -150 -35 -175 -5 -25 -12 -61 -15 -80 -3 -19 -17 -91 -31 -159 -14 -68
-25 -130 -25 -137 0 -12 219 -14 1382 -12 l1382 3 32 170 c18 94 36 184 39
200 3 17 8 44 12 60 3 17 7 37 8 45 1 8 5 29 9 45 8 38 15 72 21 110 3 17 10
53 15 80 6 28 12 60 15 73 l4 22 -1385 0 c-1100 0 -1384 -3 -1385 -12z"/>
<path d="M8266 4643 c-11 -71 -28 -156 -101 -527 -25 -126 -45 -233 -45 -238
0 -4 625 -8 1389 -8 l1389 0 7 48 c5 26 9 52 11 57 1 6 5 27 9 49 8 47 9 51
40 206 13 69 26 136 29 150 2 14 14 72 26 130 11 58 23 120 26 138 l5 32
-1389 0 -1389 0 -7 -37z"/>
</g>
</svg>
